<svg xmlns="http://www.w3.org/2000/svg" width="920" height="526" viewBox="0 0 920 526" role="img" aria-labelledby="title desc">
<title id="title">Hubbard 4x16, U = 8, n = 0.875: the best energies at each cost</title>
<desc id="desc">Hubbard 4x16, U = 8, n = 0.875: NNBF 800 GPU-h -0.765600, NNBF 800 GPU-h -0.764860, NNBF 400 GPU-h -0.762580, NNBF 200 GPU-h -0.763400</desc>
<style>text{font-family:system-ui,-apple-system,"Segoe UI",Roboto,"Helvetica Neue",Arial,sans-serif}</style>
<rect width="920" height="526" rx="8" fill="#1a1a19"/>
<text x="28" y="38" font-size="17" fill="#ffffff" font-weight="600">Hubbard 4x16, U = 8, n = 0.875: the best energies at each cost</text>
<text x="28" y="62" font-size="13" fill="#c3c2b7">Every energy on this instance whose paper, or QMBL's own run, states what it cost in hours.</text>
<circle cx="35" cy="92" r="6.5" fill="#1a1a19"/><circle cx="35" cy="92" r="4.5" fill="#3987e5"/>
<text x="48" y="96" font-size="12" fill="#c3c2b7">Variational bound</text>
<circle cx="182.3" cy="92" r="6.5" fill="#1a1a19"/><circle cx="182.3" cy="92" r="4.5" fill="#d95926"/>
<text x="195.3" y="96" font-size="12" fill="#c3c2b7">Projected</text>
<circle cx="286.4" cy="92" r="6.5" fill="#1a1a19"/><circle cx="286.4" cy="92" r="4.5" fill="#199e70"/>
<text x="299.4" y="96" font-size="12" fill="#c3c2b7">Extrapolated</text>
<circle cx="408.2" cy="92" r="6.5" fill="#1a1a19"/><circle cx="408.2" cy="92" r="4.5" fill="#c98500"/>
<text x="421.2" y="96" font-size="12" fill="#c3c2b7">Exact</text>
<circle cx="484.4" cy="92" r="6.5" fill="#1a1a19"/><circle cx="484.4" cy="92" r="4" fill="#1a1a19" stroke="#c3c2b7" stroke-width="2"/>
<text x="497.4" y="96" font-size="12" fill="#c3c2b7">Cannot hold a record</text>
<path d="M645.6000000000001 92H659.6000000000001" stroke="#3987e5" stroke-width="2" stroke-linecap="round"/>
<text x="665.6" y="96" font-size="12" fill="#c3c2b7">Frontier</text>
<text x="884" y="118" font-size="9.5" fill="#898781" text-anchor="end">E/site</text>
<path d="M94 432.5H884" stroke="#2c2c2a" stroke-width="1"/>
<text x="88" y="436" font-size="10" fill="#898781" text-anchor="end" style="font-variant-numeric:tabular-nums">−0.766</text>
<path d="M94 357.5H884" stroke="#2c2c2a" stroke-width="1"/>
<text x="88" y="361" font-size="10" fill="#898781" text-anchor="end" style="font-variant-numeric:tabular-nums">−0.765</text>
<path d="M94 282.5H884" stroke="#2c2c2a" stroke-width="1"/>
<text x="88" y="286" font-size="10" fill="#898781" text-anchor="end" style="font-variant-numeric:tabular-nums">−0.764</text>
<path d="M94 207.5H884" stroke="#2c2c2a" stroke-width="1"/>
<text x="88" y="211" font-size="10" fill="#898781" text-anchor="end" style="font-variant-numeric:tabular-nums">−0.763</text>
<path d="M94 132.5H884" stroke="#2c2c2a" stroke-width="1"/>
<text x="88" y="136" font-size="10" fill="#898781" text-anchor="end" style="font-variant-numeric:tabular-nums">−0.762</text>
<text x="94" y="448" font-size="10" fill="#898781" text-anchor="middle" style="font-variant-numeric:tabular-nums">10¹</text>
<text x="357.3" y="448" font-size="10" fill="#898781" text-anchor="middle" style="font-variant-numeric:tabular-nums">10²</text>
<text x="620.7" y="448" font-size="10" fill="#898781" text-anchor="middle" style="font-variant-numeric:tabular-nums">10³</text>
<text x="884" y="448" font-size="10" fill="#898781" text-anchor="middle" style="font-variant-numeric:tabular-nums">10⁴</text>
<path d="M436.6 237H595.1V402" fill="none" stroke="#3987e5" stroke-width="2" stroke-linejoin="round" stroke-linecap="round" opacity="0.7"/>
<a class="pt" href="/instances/#r-Hubbard_rectangular-4x16_64_P_28_8-4ecd81d6"><circle cx="595.1" cy="402" r="6.5" fill="#1a1a19"/><circle cx="595.1" cy="402" r="4.5" fill="#3987e5"/></a>
<a class="pt" href="/instances/#r-Hubbard_rectangular-4x16_64_P_28_8-b6d9f33e"><circle cx="595.1" cy="346.5" r="6.5" fill="#1a1a19"/><circle cx="595.1" cy="346.5" r="4.5" fill="#3987e5"/></a>
<a class="pt" href="/instances/#r-Hubbard_rectangular-4x16_64_P_28_8-beca604b"><circle cx="515.9" cy="175.5" r="6.5" fill="#1a1a19"/><circle cx="515.9" cy="175.5" r="4.5" fill="#3987e5"/></a>
<a class="pt" href="/instances/#r-Hubbard_rectangular-4x16_64_P_28_8-c399ba5c"><circle cx="436.6" cy="237" r="6.5" fill="#1a1a19"/><circle cx="436.6" cy="237" r="4.5" fill="#3987e5"/></a>
<text x="446.6" y="241" font-size="10.5" fill="#c3c2b7" text-anchor="start">NNBF</text>
<text x="605.1" y="406" font-size="10.5" fill="#c3c2b7" text-anchor="start">NNBF</text>
<text x="489" y="464" font-size="10.5" fill="#c3c2b7" text-anchor="middle">hours, as reported</text>
<text x="94" y="480" font-size="9.5" fill="#898781">record: −0.766230 (ACE), no cost stated, not drawn</text>
<text x="28" y="502" font-size="11.5" fill="#898781">Every mark is GPU-hours.</text>
</svg>
