<svg xmlns="http://www.w3.org/2000/svg" width="920" height="406" viewBox="0 0 920 406" role="img" aria-labelledby="title desc">
<title id="title">How many published variational energies each instance has</title>
<desc id="desc">Histogram of variational rows per instance: 0: 102, 1: 79, 2: 66, 3: 27, 4: 15, 5: 16, 6: 15, 7: 7, 8: 3, 9: 2, 10: 2, 11: 0, 12: 3, 13: 1, 14: 1, 15: 0, 16: 1, 17: 0, 18: 2, 19: 0, 20: 0, 21: 1, 22: 0, 23: 0, 24: 0, 25: 0, 26: 1, 27: 0, 28: 0, 29: 0, 30: 0, 31: 0, 32: 0, 33: 0, 34: 0, 35: 0, 36: 0, 37: 0, 38: 0, 39: 0, 40: 0, 41: 0, 42: 0, 43: 0, 44: 0, 45: 0, 46: 0, 47: 0, 48: 0, 49: 0, 50: 0, 51: 0, 52: 0, 53: 1.</desc>
<style>text{font-family:system-ui,-apple-system,"Segoe UI",Roboto,"Helvetica Neue",Arial,sans-serif}</style>
<rect width="920" height="406" rx="8" fill="#1a1a19"/>
<text x="28" y="38" font-size="17" fill="#ffffff" font-weight="600">How many published variational energies each instance has</text>
<text x="28" y="62" font-size="13" fill="#c3c2b7">102 of 345 instances have none, 79 have exactly one, and 56 have five or more.</text>
<path d="M36 296.5H884" stroke="#2c2c2a" stroke-width="1"/>
<path d="M39.1 296V110A4 4 0 0 1 43.1 106H44.6A4 4 0 0 1 48.6 110V296Z" fill="#3987e5"/>
<text x="43.9" y="99" font-size="12" fill="#c3c2b7" text-anchor="middle" style="font-variant-numeric:tabular-nums">102</text>
<text x="43.9" y="314" font-size="11" fill="#898781" text-anchor="middle" style="font-variant-numeric:tabular-nums">0</text>
<path d="M54.8 296V152.8A4 4 0 0 1 58.8 148.8H60.3A4 4 0 0 1 64.3 152.8V296Z" fill="#3987e5"/>
<text x="59.6" y="141.8" font-size="12" fill="#c3c2b7" text-anchor="middle" style="font-variant-numeric:tabular-nums">79</text>
<text x="59.6" y="314" font-size="11" fill="#898781" text-anchor="middle" style="font-variant-numeric:tabular-nums">1</text>
<path d="M70.5 296V177.1A4 4 0 0 1 74.5 173.1H76A4 4 0 0 1 80 177.1V296Z" fill="#3987e5"/>
<text x="75.3" y="166.1" font-size="12" fill="#c3c2b7" text-anchor="middle" style="font-variant-numeric:tabular-nums">66</text>
<text x="75.3" y="314" font-size="11" fill="#898781" text-anchor="middle" style="font-variant-numeric:tabular-nums">2</text>
<path d="M86.3 296V249.7A4 4 0 0 1 90.3 245.7H91.7A4 4 0 0 1 95.7 249.7V296Z" fill="#3987e5"/>
<text x="91" y="238.7" font-size="12" fill="#c3c2b7" text-anchor="middle" style="font-variant-numeric:tabular-nums">27</text>
<text x="91" y="314" font-size="11" fill="#898781" text-anchor="middle" style="font-variant-numeric:tabular-nums">3</text>
<path d="M102 296V272.1A4 4 0 0 1 106 268.1H107.4A4 4 0 0 1 111.4 272.1V296Z" fill="#3987e5"/>
<text x="106.7" y="261.1" font-size="12" fill="#c3c2b7" text-anchor="middle" style="font-variant-numeric:tabular-nums">15</text>
<text x="106.7" y="314" font-size="11" fill="#898781" text-anchor="middle" style="font-variant-numeric:tabular-nums">4</text>
<path d="M117.7 296V270.2A4 4 0 0 1 121.7 266.2H123.1A4 4 0 0 1 127.1 270.2V296Z" fill="#3987e5"/>
<text x="122.4" y="259.2" font-size="12" fill="#c3c2b7" text-anchor="middle" style="font-variant-numeric:tabular-nums">16</text>
<text x="122.4" y="314" font-size="11" fill="#898781" text-anchor="middle" style="font-variant-numeric:tabular-nums">5</text>
<path d="M133.4 296V272.1A4 4 0 0 1 137.4 268.1H138.8A4 4 0 0 1 142.8 272.1V296Z" fill="#3987e5"/>
<text x="138.1" y="261.1" font-size="12" fill="#c3c2b7" text-anchor="middle" style="font-variant-numeric:tabular-nums">15</text>
<text x="138.1" y="314" font-size="11" fill="#898781" text-anchor="middle" style="font-variant-numeric:tabular-nums">6</text>
<path d="M149.1 296V287A4 4 0 0 1 153.1 283H154.5A4 4 0 0 1 158.5 287V296Z" fill="#3987e5"/>
<text x="153.8" y="276" font-size="12" fill="#c3c2b7" text-anchor="middle" style="font-variant-numeric:tabular-nums">7</text>
<text x="153.8" y="314" font-size="11" fill="#898781" text-anchor="middle" style="font-variant-numeric:tabular-nums">7</text>
<path d="M164.8 296V294.4A4 4 0 0 1 168.8 290.4H170.2A4 4 0 0 1 174.2 294.4V296Z" fill="#3987e5"/>
<text x="169.5" y="283.4" font-size="12" fill="#c3c2b7" text-anchor="middle" style="font-variant-numeric:tabular-nums">3</text>
<text x="169.5" y="314" font-size="11" fill="#898781" text-anchor="middle" style="font-variant-numeric:tabular-nums">8</text>
<path d="M180.5 296V296A3.7254901960784537 3.7254901960784537 0 0 1 184.2 292.3H186.2A3.7254901960784537 3.7254901960784537 0 0 1 189.9 296V296Z" fill="#3987e5"/>
<text x="185.2" y="285.3" font-size="12" fill="#c3c2b7" text-anchor="middle" style="font-variant-numeric:tabular-nums">2</text>
<text x="185.2" y="314" font-size="11" fill="#898781" text-anchor="middle" style="font-variant-numeric:tabular-nums">9</text>
<path d="M196.2 296V296A3.7254901960784537 3.7254901960784537 0 0 1 199.9 292.3H201.9A3.7254901960784537 3.7254901960784537 0 0 1 205.6 296V296Z" fill="#3987e5"/>
<text x="200.9" y="285.3" font-size="12" fill="#c3c2b7" text-anchor="middle" style="font-variant-numeric:tabular-nums">2</text>
<text x="200.9" y="314" font-size="11" fill="#898781" text-anchor="middle" style="font-variant-numeric:tabular-nums">10</text>

<text x="216.6" y="314" font-size="11" fill="#898781" text-anchor="middle" style="font-variant-numeric:tabular-nums">11</text>
<path d="M227.6 296V294.4A4 4 0 0 1 231.6 290.4H233A4 4 0 0 1 237 294.4V296Z" fill="#3987e5"/>
<text x="232.3" y="283.4" font-size="12" fill="#c3c2b7" text-anchor="middle" style="font-variant-numeric:tabular-nums">3</text>
<text x="232.3" y="314" font-size="11" fill="#898781" text-anchor="middle" style="font-variant-numeric:tabular-nums">12</text>
<path d="M243.3 296V296A1.8627450980392268 1.8627450980392268 0 0 1 245.2 294.1H250.8A1.8627450980392268 1.8627450980392268 0 0 1 252.7 296V296Z" fill="#3987e5"/>
<text x="248" y="287.1" font-size="12" fill="#c3c2b7" text-anchor="middle" style="font-variant-numeric:tabular-nums">1</text>
<text x="248" y="314" font-size="11" fill="#898781" text-anchor="middle" style="font-variant-numeric:tabular-nums">13</text>
<path d="M259 296V296A1.8627450980392268 1.8627450980392268 0 0 1 260.9 294.1H266.6A1.8627450980392268 1.8627450980392268 0 0 1 268.4 296V296Z" fill="#3987e5"/>
<text x="263.7" y="287.1" font-size="12" fill="#c3c2b7" text-anchor="middle" style="font-variant-numeric:tabular-nums">1</text>
<text x="263.7" y="314" font-size="11" fill="#898781" text-anchor="middle" style="font-variant-numeric:tabular-nums">14</text>

<text x="279.4" y="314" font-size="11" fill="#898781" text-anchor="middle" style="font-variant-numeric:tabular-nums">15</text>
<path d="M290.4 296V296A1.8627450980392268 1.8627450980392268 0 0 1 292.3 294.1H298A1.8627450980392268 1.8627450980392268 0 0 1 299.8 296V296Z" fill="#3987e5"/>
<text x="295.1" y="287.1" font-size="12" fill="#c3c2b7" text-anchor="middle" style="font-variant-numeric:tabular-nums">1</text>
<text x="295.1" y="314" font-size="11" fill="#898781" text-anchor="middle" style="font-variant-numeric:tabular-nums">16</text>

<text x="310.8" y="314" font-size="11" fill="#898781" text-anchor="middle" style="font-variant-numeric:tabular-nums">17</text>
<path d="M321.8 296V296A3.7254901960784537 3.7254901960784537 0 0 1 325.5 292.3H327.5A3.7254901960784537 3.7254901960784537 0 0 1 331.2 296V296Z" fill="#3987e5"/>
<text x="326.5" y="285.3" font-size="12" fill="#c3c2b7" text-anchor="middle" style="font-variant-numeric:tabular-nums">2</text>
<text x="326.5" y="314" font-size="11" fill="#898781" text-anchor="middle" style="font-variant-numeric:tabular-nums">18</text>

<text x="342.2" y="314" font-size="11" fill="#898781" text-anchor="middle" style="font-variant-numeric:tabular-nums">19</text>

<text x="357.9" y="314" font-size="11" fill="#898781" text-anchor="middle" style="font-variant-numeric:tabular-nums">20</text>
<path d="M368.9 296V296A1.8627450980392268 1.8627450980392268 0 0 1 370.8 294.1H376.5A1.8627450980392268 1.8627450980392268 0 0 1 378.3 296V296Z" fill="#3987e5"/>
<text x="373.6" y="287.1" font-size="12" fill="#c3c2b7" text-anchor="middle" style="font-variant-numeric:tabular-nums">1</text>
<text x="373.6" y="314" font-size="11" fill="#898781" text-anchor="middle" style="font-variant-numeric:tabular-nums">21</text>

<text x="389.3" y="314" font-size="11" fill="#898781" text-anchor="middle" style="font-variant-numeric:tabular-nums">22</text>

<text x="405" y="314" font-size="11" fill="#898781" text-anchor="middle" style="font-variant-numeric:tabular-nums">23</text>

<text x="420.7" y="314" font-size="11" fill="#898781" text-anchor="middle" style="font-variant-numeric:tabular-nums">24</text>

<text x="436.4" y="314" font-size="11" fill="#898781" text-anchor="middle" style="font-variant-numeric:tabular-nums">25</text>
<path d="M447.4 296V296A1.8627450980392268 1.8627450980392268 0 0 1 449.3 294.1H455A1.8627450980392268 1.8627450980392268 0 0 1 456.9 296V296Z" fill="#3987e5"/>
<text x="452.1" y="287.1" font-size="12" fill="#c3c2b7" text-anchor="middle" style="font-variant-numeric:tabular-nums">1</text>
<text x="452.1" y="314" font-size="11" fill="#898781" text-anchor="middle" style="font-variant-numeric:tabular-nums">26</text>

<text x="467.9" y="314" font-size="11" fill="#898781" text-anchor="middle" style="font-variant-numeric:tabular-nums">27</text>

<text x="483.6" y="314" font-size="11" fill="#898781" text-anchor="middle" style="font-variant-numeric:tabular-nums">28</text>

<text x="499.3" y="314" font-size="11" fill="#898781" text-anchor="middle" style="font-variant-numeric:tabular-nums">29</text>

<text x="515" y="314" font-size="11" fill="#898781" text-anchor="middle" style="font-variant-numeric:tabular-nums">30</text>

<text x="530.7" y="314" font-size="11" fill="#898781" text-anchor="middle" style="font-variant-numeric:tabular-nums">31</text>

<text x="546.4" y="314" font-size="11" fill="#898781" text-anchor="middle" style="font-variant-numeric:tabular-nums">32</text>

<text x="562.1" y="314" font-size="11" fill="#898781" text-anchor="middle" style="font-variant-numeric:tabular-nums">33</text>

<text x="577.8" y="314" font-size="11" fill="#898781" text-anchor="middle" style="font-variant-numeric:tabular-nums">34</text>

<text x="593.5" y="314" font-size="11" fill="#898781" text-anchor="middle" style="font-variant-numeric:tabular-nums">35</text>

<text x="609.2" y="314" font-size="11" fill="#898781" text-anchor="middle" style="font-variant-numeric:tabular-nums">36</text>

<text x="624.9" y="314" font-size="11" fill="#898781" text-anchor="middle" style="font-variant-numeric:tabular-nums">37</text>

<text x="640.6" y="314" font-size="11" fill="#898781" text-anchor="middle" style="font-variant-numeric:tabular-nums">38</text>

<text x="656.3" y="314" font-size="11" fill="#898781" text-anchor="middle" style="font-variant-numeric:tabular-nums">39</text>

<text x="672" y="314" font-size="11" fill="#898781" text-anchor="middle" style="font-variant-numeric:tabular-nums">40</text>

<text x="687.7" y="314" font-size="11" fill="#898781" text-anchor="middle" style="font-variant-numeric:tabular-nums">41</text>

<text x="703.4" y="314" font-size="11" fill="#898781" text-anchor="middle" style="font-variant-numeric:tabular-nums">42</text>

<text x="719.1" y="314" font-size="11" fill="#898781" text-anchor="middle" style="font-variant-numeric:tabular-nums">43</text>

<text x="734.8" y="314" font-size="11" fill="#898781" text-anchor="middle" style="font-variant-numeric:tabular-nums">44</text>

<text x="750.5" y="314" font-size="11" fill="#898781" text-anchor="middle" style="font-variant-numeric:tabular-nums">45</text>

<text x="766.2" y="314" font-size="11" fill="#898781" text-anchor="middle" style="font-variant-numeric:tabular-nums">46</text>

<text x="781.9" y="314" font-size="11" fill="#898781" text-anchor="middle" style="font-variant-numeric:tabular-nums">47</text>

<text x="797.6" y="314" font-size="11" fill="#898781" text-anchor="middle" style="font-variant-numeric:tabular-nums">48</text>

<text x="813.3" y="314" font-size="11" fill="#898781" text-anchor="middle" style="font-variant-numeric:tabular-nums">49</text>

<text x="829" y="314" font-size="11" fill="#898781" text-anchor="middle" style="font-variant-numeric:tabular-nums">50</text>

<text x="844.7" y="314" font-size="11" fill="#898781" text-anchor="middle" style="font-variant-numeric:tabular-nums">51</text>

<text x="860.4" y="314" font-size="11" fill="#898781" text-anchor="middle" style="font-variant-numeric:tabular-nums">52</text>
<path d="M871.4 296V296A1.8627450980392268 1.8627450980392268 0 0 1 873.3 294.1H879A1.8627450980392268 1.8627450980392268 0 0 1 880.9 296V296Z" fill="#3987e5"/>
<text x="876.1" y="287.1" font-size="12" fill="#c3c2b7" text-anchor="middle" style="font-variant-numeric:tabular-nums">1</text>
<text x="876.1" y="314" font-size="11" fill="#898781" text-anchor="middle" style="font-variant-numeric:tabular-nums">53</text>
<text x="460" y="336" font-size="12" fill="#c3c2b7" text-anchor="middle">variational rows on the instance</text>
<text x="28" y="366" font-size="11.5" fill="#898781">Each bar counts instances. Exact, projected and extrapolated rows are not counted: this is how many variational bounds each instance has</text>
<text x="28" y="382" font-size="11.5" fill="#898781">drawn.</text>
</svg>
