<svg xmlns="http://www.w3.org/2000/svg" width="920" height="390" viewBox="0 0 920 390" role="img" aria-labelledby="title desc">
<title id="title">How many published variational energies each instance has</title>
<desc id="desc">Histogram of variational rows per instance: 0: 139, 1: 60, 2: 55, 3: 24, 4: 18, 5: 12, 6: 2, 7: 6, 8: 1, 9: 1, 10: 2, 11: 0, 12: 0, 13: 1, 14: 1.</desc>
<style>text{font-family:system-ui,-apple-system,"Segoe UI",Roboto,"Helvetica Neue",Arial,sans-serif}</style>
<rect width="920" height="390" rx="8" fill="#1a1a19"/>
<text x="28" y="38" font-size="17" fill="#ffffff" font-weight="600">How many published variational energies each instance has</text>
<text x="28" y="62" font-size="13" fill="#c3c2b7">139 of 322 instances have none, 60 have exactly one, and 26 have five or more.</text>
<path d="M36 296.5H884" stroke="#2c2c2a" stroke-width="1"/>
<path d="M52.3 296V110A4 4 0 0 1 56.3 106H72.3A4 4 0 0 1 76.3 110V296Z" fill="#3987e5"/>
<text x="64.3" y="99" font-size="12" fill="#c3c2b7" text-anchor="middle" style="font-variant-numeric:tabular-nums">139</text>
<text x="64.3" y="314" font-size="11" fill="#898781" text-anchor="middle" style="font-variant-numeric:tabular-nums">0</text>
<path d="M108.8 296V218A4 4 0 0 1 112.8 214H128.8A4 4 0 0 1 132.8 218V296Z" fill="#3987e5"/>
<text x="120.8" y="207" font-size="12" fill="#c3c2b7" text-anchor="middle" style="font-variant-numeric:tabular-nums">60</text>
<text x="120.8" y="314" font-size="11" fill="#898781" text-anchor="middle" style="font-variant-numeric:tabular-nums">1</text>
<path d="M165.3 296V224.8A4 4 0 0 1 169.3 220.8H185.3A4 4 0 0 1 189.3 224.8V296Z" fill="#3987e5"/>
<text x="177.3" y="213.8" font-size="12" fill="#c3c2b7" text-anchor="middle" style="font-variant-numeric:tabular-nums">55</text>
<text x="177.3" y="314" font-size="11" fill="#898781" text-anchor="middle" style="font-variant-numeric:tabular-nums">2</text>
<path d="M221.9 296V267.2A4 4 0 0 1 225.9 263.2H241.9A4 4 0 0 1 245.9 267.2V296Z" fill="#3987e5"/>
<text x="233.9" y="256.2" font-size="12" fill="#c3c2b7" text-anchor="middle" style="font-variant-numeric:tabular-nums">24</text>
<text x="233.9" y="314" font-size="11" fill="#898781" text-anchor="middle" style="font-variant-numeric:tabular-nums">3</text>
<path d="M278.4 296V275.4A4 4 0 0 1 282.4 271.4H298.4A4 4 0 0 1 302.4 275.4V296Z" fill="#3987e5"/>
<text x="290.4" y="264.4" font-size="12" fill="#c3c2b7" text-anchor="middle" style="font-variant-numeric:tabular-nums">18</text>
<text x="290.4" y="314" font-size="11" fill="#898781" text-anchor="middle" style="font-variant-numeric:tabular-nums">4</text>
<path d="M334.9 296V283.6A4 4 0 0 1 338.9 279.6H354.9A4 4 0 0 1 358.9 283.6V296Z" fill="#3987e5"/>
<text x="346.9" y="272.6" font-size="12" fill="#c3c2b7" text-anchor="middle" style="font-variant-numeric:tabular-nums">12</text>
<text x="346.9" y="314" font-size="11" fill="#898781" text-anchor="middle" style="font-variant-numeric:tabular-nums">5</text>
<path d="M391.5 296V296A2.73381294964031 2.73381294964031 0 0 1 394.2 293.3H412.7A2.73381294964031 2.73381294964031 0 0 1 415.5 296V296Z" fill="#3987e5"/>
<text x="403.5" y="286.3" font-size="12" fill="#c3c2b7" text-anchor="middle" style="font-variant-numeric:tabular-nums">2</text>
<text x="403.5" y="314" font-size="11" fill="#898781" text-anchor="middle" style="font-variant-numeric:tabular-nums">6</text>
<path d="M448 296V291.8A4 4 0 0 1 452 287.8H468A4 4 0 0 1 472 291.8V296Z" fill="#3987e5"/>
<text x="460" y="280.8" font-size="12" fill="#c3c2b7" text-anchor="middle" style="font-variant-numeric:tabular-nums">6</text>
<text x="460" y="314" font-size="11" fill="#898781" text-anchor="middle" style="font-variant-numeric:tabular-nums">7</text>
<path d="M504.5 296V296A1.366906474820155 1.366906474820155 0 0 1 505.9 294.6H527.2A1.366906474820155 1.366906474820155 0 0 1 528.5 296V296Z" fill="#3987e5"/>
<text x="516.5" y="287.6" font-size="12" fill="#c3c2b7" text-anchor="middle" style="font-variant-numeric:tabular-nums">1</text>
<text x="516.5" y="314" font-size="11" fill="#898781" text-anchor="middle" style="font-variant-numeric:tabular-nums">8</text>
<path d="M561.1 296V296A1.366906474820155 1.366906474820155 0 0 1 562.4 294.6H583.7A1.366906474820155 1.366906474820155 0 0 1 585.1 296V296Z" fill="#3987e5"/>
<text x="573.1" y="287.6" font-size="12" fill="#c3c2b7" text-anchor="middle" style="font-variant-numeric:tabular-nums">1</text>
<text x="573.1" y="314" font-size="11" fill="#898781" text-anchor="middle" style="font-variant-numeric:tabular-nums">9</text>
<path d="M617.6 296V296A2.73381294964031 2.73381294964031 0 0 1 620.3 293.3H638.9A2.73381294964031 2.73381294964031 0 0 1 641.6 296V296Z" fill="#3987e5"/>
<text x="629.6" y="286.3" font-size="12" fill="#c3c2b7" text-anchor="middle" style="font-variant-numeric:tabular-nums">2</text>
<text x="629.6" y="314" font-size="11" fill="#898781" text-anchor="middle" style="font-variant-numeric:tabular-nums">10</text>

<text x="686.1" y="314" font-size="11" fill="#898781" text-anchor="middle" style="font-variant-numeric:tabular-nums">11</text>

<text x="742.7" y="314" font-size="11" fill="#898781" text-anchor="middle" style="font-variant-numeric:tabular-nums">12</text>
<path d="M787.2 296V296A1.366906474820155 1.366906474820155 0 0 1 788.6 294.6H809.8A1.366906474820155 1.366906474820155 0 0 1 811.2 296V296Z" fill="#3987e5"/>
<text x="799.2" y="287.6" font-size="12" fill="#c3c2b7" text-anchor="middle" style="font-variant-numeric:tabular-nums">1</text>
<text x="799.2" y="314" font-size="11" fill="#898781" text-anchor="middle" style="font-variant-numeric:tabular-nums">13</text>
<path d="M843.7 296V296A1.366906474820155 1.366906474820155 0 0 1 845.1 294.6H866.4A1.366906474820155 1.366906474820155 0 0 1 867.7 296V296Z" fill="#3987e5"/>
<text x="855.7" y="287.6" font-size="12" fill="#c3c2b7" text-anchor="middle" style="font-variant-numeric:tabular-nums">1</text>
<text x="855.7" y="314" font-size="11" fill="#898781" text-anchor="middle" style="font-variant-numeric:tabular-nums">14</text>
<text x="460" y="336" font-size="12" fill="#c3c2b7" text-anchor="middle">variational rows on the instance</text>
<text x="28" y="366" font-size="11.5" fill="#898781">Each bar counts instances. Exact, projected and extrapolated rows are not counted: only a variational row can hold a record.</text>
</svg>
