<svg xmlns="http://www.w3.org/2000/svg" width="920" height="390" viewBox="0 0 920 390" role="img" aria-labelledby="title desc">
<title id="title">How many published variational energies each instance has</title>
<desc id="desc">Histogram of variational rows per instance: 0: 113, 1: 62, 2: 69, 3: 27, 4: 16, 5: 14, 6: 16, 7: 7, 8: 3, 9: 1, 10: 2, 11: 0, 12: 3, 13: 3, 14: 0, 15: 0, 16: 1, 17: 0, 18: 2, 19: 0, 20: 0, 21: 0, 22: 0, 23: 0, 24: 0, 25: 0, 26: 1, 27: 0, 28: 0, 29: 0, 30: 0, 31: 0, 32: 0, 33: 0, 34: 0, 35: 0, 36: 0, 37: 0, 38: 0, 39: 0, 40: 0, 41: 0, 42: 0, 43: 0, 44: 0, 45: 0, 46: 1.</desc>
<style>text{font-family:system-ui,-apple-system,"Segoe UI",Roboto,"Helvetica Neue",Arial,sans-serif}</style>
<rect width="920" height="390" rx="8" fill="#1a1a19"/>
<text x="28" y="38" font-size="17" fill="#ffffff" font-weight="600">How many published variational energies each instance has</text>
<text x="28" y="62" font-size="13" fill="#c3c2b7">113 of 341 instances have none, 62 have exactly one, and 54 have five or more.</text>
<path d="M36 296.5H884" stroke="#2c2c2a" stroke-width="1"/>
<path d="M39.6 296V110A4 4 0 0 1 43.6 106H46.4A4 4 0 0 1 50.4 110V296Z" fill="#3987e5"/>
<text x="45" y="99" font-size="12" fill="#c3c2b7" text-anchor="middle" style="font-variant-numeric:tabular-nums">113</text>
<text x="45" y="314" font-size="11" fill="#898781" text-anchor="middle" style="font-variant-numeric:tabular-nums">0</text>
<path d="M57.7 296V195.8A4 4 0 0 1 61.7 191.8H64.5A4 4 0 0 1 68.5 195.8V296Z" fill="#3987e5"/>
<text x="63.1" y="184.8" font-size="12" fill="#c3c2b7" text-anchor="middle" style="font-variant-numeric:tabular-nums">62</text>
<text x="63.1" y="314" font-size="11" fill="#898781" text-anchor="middle" style="font-variant-numeric:tabular-nums">1</text>
<path d="M75.7 296V184A4 4 0 0 1 79.7 180H82.5A4 4 0 0 1 86.5 184V296Z" fill="#3987e5"/>
<text x="81.1" y="173" font-size="12" fill="#c3c2b7" text-anchor="middle" style="font-variant-numeric:tabular-nums">69</text>
<text x="81.1" y="314" font-size="11" fill="#898781" text-anchor="middle" style="font-variant-numeric:tabular-nums">2</text>
<path d="M93.7 296V254.6A4 4 0 0 1 97.7 250.6H100.6A4 4 0 0 1 104.6 254.6V296Z" fill="#3987e5"/>
<text x="99.1" y="243.6" font-size="12" fill="#c3c2b7" text-anchor="middle" style="font-variant-numeric:tabular-nums">27</text>
<text x="99.1" y="314" font-size="11" fill="#898781" text-anchor="middle" style="font-variant-numeric:tabular-nums">3</text>
<path d="M111.8 296V273.1A4 4 0 0 1 115.8 269.1H118.6A4 4 0 0 1 122.6 273.1V296Z" fill="#3987e5"/>
<text x="117.2" y="262.1" font-size="12" fill="#c3c2b7" text-anchor="middle" style="font-variant-numeric:tabular-nums">16</text>
<text x="117.2" y="314" font-size="11" fill="#898781" text-anchor="middle" style="font-variant-numeric:tabular-nums">4</text>
<path d="M129.8 296V276.5A4 4 0 0 1 133.8 272.5H136.6A4 4 0 0 1 140.6 276.5V296Z" fill="#3987e5"/>
<text x="135.2" y="265.5" font-size="12" fill="#c3c2b7" text-anchor="middle" style="font-variant-numeric:tabular-nums">14</text>
<text x="135.2" y="314" font-size="11" fill="#898781" text-anchor="middle" style="font-variant-numeric:tabular-nums">5</text>
<path d="M147.9 296V273.1A4 4 0 0 1 151.9 269.1H154.7A4 4 0 0 1 158.7 273.1V296Z" fill="#3987e5"/>
<text x="153.3" y="262.1" font-size="12" fill="#c3c2b7" text-anchor="middle" style="font-variant-numeric:tabular-nums">16</text>
<text x="153.3" y="314" font-size="11" fill="#898781" text-anchor="middle" style="font-variant-numeric:tabular-nums">6</text>
<path d="M165.9 296V288.2A4 4 0 0 1 169.9 284.2H172.7A4 4 0 0 1 176.7 288.2V296Z" fill="#3987e5"/>
<text x="171.3" y="277.2" font-size="12" fill="#c3c2b7" text-anchor="middle" style="font-variant-numeric:tabular-nums">7</text>
<text x="171.3" y="314" font-size="11" fill="#898781" text-anchor="middle" style="font-variant-numeric:tabular-nums">7</text>
<path d="M183.9 296V295A4 4 0 0 1 187.9 291H190.8A4 4 0 0 1 194.8 295V296Z" fill="#3987e5"/>
<text x="189.4" y="284" font-size="12" fill="#c3c2b7" text-anchor="middle" style="font-variant-numeric:tabular-nums">3</text>
<text x="189.4" y="314" font-size="11" fill="#898781" text-anchor="middle" style="font-variant-numeric:tabular-nums">8</text>
<path d="M202 296V296A1.6814159292035242 1.6814159292035242 0 0 1 203.7 294.3H211.1A1.6814159292035242 1.6814159292035242 0 0 1 212.8 296V296Z" fill="#3987e5"/>
<text x="207.4" y="287.3" font-size="12" fill="#c3c2b7" text-anchor="middle" style="font-variant-numeric:tabular-nums">1</text>
<text x="207.4" y="314" font-size="11" fill="#898781" text-anchor="middle" style="font-variant-numeric:tabular-nums">9</text>
<path d="M220 296V296A3.3628318584071053 3.3628318584071053 0 0 1 223.4 292.6H227.5A3.3628318584071053 3.3628318584071053 0 0 1 230.9 296V296Z" fill="#3987e5"/>
<text x="225.4" y="285.6" font-size="12" fill="#c3c2b7" text-anchor="middle" style="font-variant-numeric:tabular-nums">2</text>
<text x="225.4" y="314" font-size="11" fill="#898781" text-anchor="middle" style="font-variant-numeric:tabular-nums">10</text>

<text x="243.5" y="314" font-size="11" fill="#898781" text-anchor="middle" style="font-variant-numeric:tabular-nums">11</text>
<path d="M256.1 296V295A4 4 0 0 1 260.1 291H262.9A4 4 0 0 1 266.9 295V296Z" fill="#3987e5"/>
<text x="261.5" y="284" font-size="12" fill="#c3c2b7" text-anchor="middle" style="font-variant-numeric:tabular-nums">3</text>
<text x="261.5" y="314" font-size="11" fill="#898781" text-anchor="middle" style="font-variant-numeric:tabular-nums">12</text>
<path d="M274.2 296V295A4 4 0 0 1 278.2 291H281A4 4 0 0 1 285 295V296Z" fill="#3987e5"/>
<text x="279.6" y="284" font-size="12" fill="#c3c2b7" text-anchor="middle" style="font-variant-numeric:tabular-nums">3</text>
<text x="279.6" y="314" font-size="11" fill="#898781" text-anchor="middle" style="font-variant-numeric:tabular-nums">13</text>

<text x="297.6" y="314" font-size="11" fill="#898781" text-anchor="middle" style="font-variant-numeric:tabular-nums">14</text>

<text x="315.7" y="314" font-size="11" fill="#898781" text-anchor="middle" style="font-variant-numeric:tabular-nums">15</text>
<path d="M328.3 296V296A1.6814159292035242 1.6814159292035242 0 0 1 330 294.3H337.4A1.6814159292035242 1.6814159292035242 0 0 1 339.1 296V296Z" fill="#3987e5"/>
<text x="333.7" y="287.3" font-size="12" fill="#c3c2b7" text-anchor="middle" style="font-variant-numeric:tabular-nums">1</text>
<text x="333.7" y="314" font-size="11" fill="#898781" text-anchor="middle" style="font-variant-numeric:tabular-nums">16</text>

<text x="351.7" y="314" font-size="11" fill="#898781" text-anchor="middle" style="font-variant-numeric:tabular-nums">17</text>
<path d="M364.4 296V296A3.3628318584071053 3.3628318584071053 0 0 1 367.7 292.6H371.8A3.3628318584071053 3.3628318584071053 0 0 1 375.2 296V296Z" fill="#3987e5"/>
<text x="369.8" y="285.6" font-size="12" fill="#c3c2b7" text-anchor="middle" style="font-variant-numeric:tabular-nums">2</text>
<text x="369.8" y="314" font-size="11" fill="#898781" text-anchor="middle" style="font-variant-numeric:tabular-nums">18</text>

<text x="387.8" y="314" font-size="11" fill="#898781" text-anchor="middle" style="font-variant-numeric:tabular-nums">19</text>

<text x="405.9" y="314" font-size="11" fill="#898781" text-anchor="middle" style="font-variant-numeric:tabular-nums">20</text>

<text x="423.9" y="314" font-size="11" fill="#898781" text-anchor="middle" style="font-variant-numeric:tabular-nums">21</text>

<text x="442" y="314" font-size="11" fill="#898781" text-anchor="middle" style="font-variant-numeric:tabular-nums">22</text>

<text x="460" y="314" font-size="11" fill="#898781" text-anchor="middle" style="font-variant-numeric:tabular-nums">23</text>

<text x="478" y="314" font-size="11" fill="#898781" text-anchor="middle" style="font-variant-numeric:tabular-nums">24</text>

<text x="496.1" y="314" font-size="11" fill="#898781" text-anchor="middle" style="font-variant-numeric:tabular-nums">25</text>
<path d="M508.7 296V296A1.6814159292035242 1.6814159292035242 0 0 1 510.4 294.3H517.9A1.6814159292035242 1.6814159292035242 0 0 1 519.5 296V296Z" fill="#3987e5"/>
<text x="514.1" y="287.3" font-size="12" fill="#c3c2b7" text-anchor="middle" style="font-variant-numeric:tabular-nums">1</text>
<text x="514.1" y="314" font-size="11" fill="#898781" text-anchor="middle" style="font-variant-numeric:tabular-nums">26</text>

<text x="532.2" y="314" font-size="11" fill="#898781" text-anchor="middle" style="font-variant-numeric:tabular-nums">27</text>

<text x="550.2" y="314" font-size="11" fill="#898781" text-anchor="middle" style="font-variant-numeric:tabular-nums">28</text>

<text x="568.3" y="314" font-size="11" fill="#898781" text-anchor="middle" style="font-variant-numeric:tabular-nums">29</text>

<text x="586.3" y="314" font-size="11" fill="#898781" text-anchor="middle" style="font-variant-numeric:tabular-nums">30</text>

<text x="604.3" y="314" font-size="11" fill="#898781" text-anchor="middle" style="font-variant-numeric:tabular-nums">31</text>

<text x="622.4" y="314" font-size="11" fill="#898781" text-anchor="middle" style="font-variant-numeric:tabular-nums">32</text>

<text x="640.4" y="314" font-size="11" fill="#898781" text-anchor="middle" style="font-variant-numeric:tabular-nums">33</text>

<text x="658.5" y="314" font-size="11" fill="#898781" text-anchor="middle" style="font-variant-numeric:tabular-nums">34</text>

<text x="676.5" y="314" font-size="11" fill="#898781" text-anchor="middle" style="font-variant-numeric:tabular-nums">35</text>

<text x="694.6" y="314" font-size="11" fill="#898781" text-anchor="middle" style="font-variant-numeric:tabular-nums">36</text>

<text x="712.6" y="314" font-size="11" fill="#898781" text-anchor="middle" style="font-variant-numeric:tabular-nums">37</text>

<text x="730.6" y="314" font-size="11" fill="#898781" text-anchor="middle" style="font-variant-numeric:tabular-nums">38</text>

<text x="748.7" y="314" font-size="11" fill="#898781" text-anchor="middle" style="font-variant-numeric:tabular-nums">39</text>

<text x="766.7" y="314" font-size="11" fill="#898781" text-anchor="middle" style="font-variant-numeric:tabular-nums">40</text>

<text x="784.8" y="314" font-size="11" fill="#898781" text-anchor="middle" style="font-variant-numeric:tabular-nums">41</text>

<text x="802.8" y="314" font-size="11" fill="#898781" text-anchor="middle" style="font-variant-numeric:tabular-nums">42</text>

<text x="820.9" y="314" font-size="11" fill="#898781" text-anchor="middle" style="font-variant-numeric:tabular-nums">43</text>

<text x="838.9" y="314" font-size="11" fill="#898781" text-anchor="middle" style="font-variant-numeric:tabular-nums">44</text>

<text x="856.9" y="314" font-size="11" fill="#898781" text-anchor="middle" style="font-variant-numeric:tabular-nums">45</text>
<path d="M869.6 296V296A1.6814159292035242 1.6814159292035242 0 0 1 871.2 294.3H878.7A1.6814159292035242 1.6814159292035242 0 0 1 880.4 296V296Z" fill="#3987e5"/>
<text x="875" y="287.3" font-size="12" fill="#c3c2b7" text-anchor="middle" style="font-variant-numeric:tabular-nums">1</text>
<text x="875" y="314" font-size="11" fill="#898781" text-anchor="middle" style="font-variant-numeric:tabular-nums">46</text>
<text x="460" y="336" font-size="12" fill="#c3c2b7" text-anchor="middle">variational rows on the instance</text>
<text x="28" y="366" font-size="11.5" fill="#898781">Each bar counts instances. Exact, projected and extrapolated rows are not counted: only a variational row can hold a record.</text>
</svg>
