<svg xmlns="http://www.w3.org/2000/svg" width="920" height="427" viewBox="0 0 920 427" role="img" aria-labelledby="title desc">
<title id="title">Impurity TB-DMFT, TB-DMFT-SOC</title>
<desc id="desc">9, 19, 119, 309</desc>
<style>text{font-family:system-ui,-apple-system,"Segoe UI",Roboto,"Helvetica Neue",Arial,sans-serif}</style>
<rect width="920" height="427" rx="8" fill="#1a1a19"/>
<text x="28" y="38" font-size="17" fill="#ffffff" font-weight="600">Impurity TB-DMFT, TB-DMFT-SOC</text>
<circle cx="35" cy="73" r="6.5" fill="#1a1a19"/><circle cx="35" cy="73" r="4.5" fill="#3987e5"/>
<text x="48" y="77" font-size="12" fill="#c3c2b7">Variational bound</text>
<circle cx="182.3" cy="73" r="6.5" fill="#1a1a19"/><circle cx="182.3" cy="73" r="4.5" fill="#d95926"/>
<text x="195.3" y="77" font-size="12" fill="#c3c2b7">Projected</text>
<circle cx="286.4" cy="73" r="6.5" fill="#1a1a19"/><circle cx="286.4" cy="73" r="4.5" fill="#199e70"/>
<text x="299.4" y="77" font-size="12" fill="#c3c2b7">Extrapolated</text>
<circle cx="408.2" cy="73" r="6.5" fill="#1a1a19"/><circle cx="408.2" cy="73" r="4.5" fill="#c98500"/>
<text x="421.2" y="77" font-size="12" fill="#c3c2b7">Exact</text>
<circle cx="484.4" cy="73" r="6.5" fill="#1a1a19"/><circle cx="484.4" cy="73" r="4" fill="#1a1a19" stroke="#c3c2b7" stroke-width="2"/>
<text x="497.4" y="77" font-size="12" fill="#c3c2b7">Cannot hold a record</text>
<path d="M645.6000000000001 73H659.6000000000001" stroke="#c3c2b7" stroke-width="2" stroke-linecap="round"/>
<text x="665.6" y="77" font-size="12" fill="#c3c2b7">Record</text>
<text x="892" y="107" font-size="11" fill="#898781" text-anchor="end">E (total)</text>
<path d="M84 377.5H888" stroke="#2c2c2a" stroke-width="1"/>
<text x="78" y="381" font-size="10" fill="#898781" text-anchor="end" style="font-variant-numeric:tabular-nums">−4000</text>
<path d="M84 327.5H888" stroke="#2c2c2a" stroke-width="1"/>
<text x="78" y="331" font-size="10" fill="#898781" text-anchor="end" style="font-variant-numeric:tabular-nums">−3000</text>
<path d="M84 277.5H888" stroke="#2c2c2a" stroke-width="1"/>
<text x="78" y="281" font-size="10" fill="#898781" text-anchor="end" style="font-variant-numeric:tabular-nums">−2000</text>
<path d="M84 227.5H888" stroke="#2c2c2a" stroke-width="1"/>
<text x="78" y="231" font-size="10" fill="#898781" text-anchor="end" style="font-variant-numeric:tabular-nums">−1000</text>
<path d="M84 177.5H888" stroke="#2c2c2a" stroke-width="1"/>
<text x="78" y="181" font-size="10" fill="#898781" text-anchor="end" style="font-variant-numeric:tabular-nums">0</text>
<path d="M84 127.5H888" stroke="#2c2c2a" stroke-width="1"/>
<text x="78" y="131" font-size="10" fill="#898781" text-anchor="end" style="font-variant-numeric:tabular-nums">1000</text>
<path d="M159 377v4" stroke="#2c2c2a" stroke-width="1"/>
<text x="159" y="394" font-size="10.5" fill="#898781" text-anchor="middle" style="font-variant-numeric:tabular-nums">9</text>
<path d="M297.2 377v4" stroke="#2c2c2a" stroke-width="1"/>
<text x="297.2" y="394" font-size="10.5" fill="#898781" text-anchor="middle" style="font-variant-numeric:tabular-nums">19</text>
<path d="M636.5 377v4" stroke="#2c2c2a" stroke-width="1"/>
<text x="636.5" y="394" font-size="10.5" fill="#898781" text-anchor="middle" style="font-variant-numeric:tabular-nums">119</text>
<path d="M813 377v4" stroke="#2c2c2a" stroke-width="1"/>
<text x="813" y="394" font-size="10.5" fill="#898781" text-anchor="middle" style="font-variant-numeric:tabular-nums">309</text>
<text x="888" y="409" font-size="10.5" fill="#c3c2b7" text-anchor="end">sites</text>
<path d="M159 182.6L297.2 188L636.5 242.3L813 344.6" fill="none" stroke="#c3c2b7" stroke-width="1.5" stroke-linejoin="round" opacity="0.6"/>
<a class="pt" href="/instances/#r-Impurity_TB-DMFT-SOC_9-e0782199"><circle cx="159" cy="182.6" r="6.5" fill="#1a1a19"/><circle cx="159" cy="182.6" r="4.5" fill="#3987e5"/></a>
<a class="pt" href="/instances/#r-Impurity_TB-DMFT-SOC_9-b418687b"><circle cx="159" cy="182.6" r="6.5" fill="#1a1a19"/><circle cx="159" cy="182.6" r="4.5" fill="#3987e5"/></a>
<a class="pt" href="/instances/#r-Impurity_TB-DMFT-SOC_9-8a6c8719"><circle cx="159" cy="182.6" r="6.5" fill="#1a1a19"/><circle cx="159" cy="182.6" r="4.5" fill="#3987e5"/></a>
<a class="pt" href="/instances/#r-Impurity_TB-DMFT-SOC_19-fb0919d9"><circle cx="297.2" cy="188" r="6.5" fill="#1a1a19"/><circle cx="297.2" cy="188" r="4.5" fill="#3987e5"/></a>
<a class="pt" href="/instances/#r-Impurity_TB-DMFT-SOC_19-e71ff018"><circle cx="297.2" cy="188" r="6.5" fill="#1a1a19"/><circle cx="297.2" cy="188" r="4.5" fill="#3987e5"/></a>
<a class="pt" href="/instances/#r-Impurity_TB-DMFT-SOC_19-1072555f"><circle cx="297.2" cy="188" r="6.5" fill="#1a1a19"/><circle cx="297.2" cy="188" r="4.5" fill="#3987e5"/></a>
<a class="pt" href="/instances/#r-Impurity_TB-DMFT-SOC_119-1a068fa7"><circle cx="636.5" cy="242.3" r="6.5" fill="#1a1a19"/><circle cx="636.5" cy="242.3" r="4.5" fill="#3987e5"/></a>
<a class="pt" href="/instances/#r-Impurity_TB-DMFT-SOC_119-7ba78194"><circle cx="636.5" cy="242.3" r="6.5" fill="#1a1a19"/><circle cx="636.5" cy="242.3" r="4.5" fill="#3987e5"/></a>
<a class="pt" href="/instances/#r-Impurity_TB-DMFT-SOC_119-88e2b0b0"><circle cx="636.5" cy="242.3" r="6.5" fill="#1a1a19"/><circle cx="636.5" cy="242.3" r="4.5" fill="#3987e5"/></a>
<a class="pt" href="/instances/#r-Impurity_TB-DMFT-SOC_309-f8a4acc2"><circle cx="813" cy="344.6" r="6.5" fill="#1a1a19"/><circle cx="813" cy="344.6" r="4.5" fill="#3987e5"/></a>
<a class="pt" href="/instances/#r-Impurity_TB-DMFT-SOC_309-875ffb17"><circle cx="813" cy="344.6" r="6.5" fill="#1a1a19"/><circle cx="813" cy="344.6" r="4.5" fill="#3987e5"/></a>
<a class="pt" href="/instances/#r-Impurity_TB-DMFT-SOC_309-2bbf7025"><circle cx="813" cy="344.6" r="6.5" fill="#1a1a19"/><circle cx="813" cy="344.6" r="4.5" fill="#3987e5"/></a>
</svg>
