<svg xmlns="http://www.w3.org/2000/svg" width="920" height="449" viewBox="0 0 920 449" role="img" aria-labelledby="title desc">
<title id="title">J1-J2 square, J2 = 0.52</title>
<desc id="desc">64, 144, 256</desc>
<style>text{font-family:system-ui,-apple-system,"Segoe UI",Roboto,"Helvetica Neue",Arial,sans-serif}</style>
<rect width="920" height="449" rx="8" fill="#fcfcfb"/>
<text x="28" y="38" font-size="17" fill="#0b0b0b" font-weight="600">J1-J2 square, J2 = 0.52</text>
<circle cx="35" cy="73" r="6.5" fill="#fcfcfb"/><circle cx="35" cy="73" r="4.5" fill="#2a78d6"/>
<text x="48" y="77" font-size="12" fill="#52514e">Variational bound</text>
<circle cx="182.3" cy="73" r="6.5" fill="#fcfcfb"/><circle cx="182.3" cy="73" r="4.5" fill="#eb6834"/>
<text x="195.3" y="77" font-size="12" fill="#52514e">Projected</text>
<circle cx="286.4" cy="73" r="6.5" fill="#fcfcfb"/><circle cx="286.4" cy="73" r="4.5" fill="#1baf7a"/>
<text x="299.4" y="77" font-size="12" fill="#52514e">Extrapolated</text>
<circle cx="408.2" cy="73" r="6.5" fill="#fcfcfb"/><circle cx="408.2" cy="73" r="4.5" fill="#eda100"/>
<text x="421.2" y="77" font-size="12" fill="#52514e">Exact</text>
<circle cx="484.4" cy="73" r="6.5" fill="#fcfcfb"/><circle cx="484.4" cy="73" r="4" fill="#fcfcfb" stroke="#52514e" stroke-width="2"/>
<text x="497.4" y="77" font-size="12" fill="#52514e">Cannot hold a record</text>
<circle cx="652.6" cy="73" r="4" fill="none" stroke="#52514e" stroke-width="2"/><path d="M647.1 78.5L658.1 67.5" stroke="#fcfcfb" stroke-width="3.5" stroke-linecap="round"/><path d="M647.1 78.5L658.1 67.5" stroke="#52514e" stroke-width="2" stroke-linecap="round"/>
<text x="665.6" y="77" font-size="12" fill="#52514e">Flagged, see the row</text>
<path d="M28 95H42" stroke="#52514e" stroke-width="2" stroke-linecap="round"/>
<text x="48" y="99" font-size="12" fill="#52514e">Record</text>
<text x="892" y="129" font-size="11" fill="#898781" text-anchor="end">E/N (S.S)</text>
<path d="M84 399.5H888" stroke="#e1e0d9" stroke-width="1"/>
<text x="78" y="403" font-size="10" fill="#898781" text-anchor="end" style="font-variant-numeric:tabular-nums">−0.495</text>
<path d="M84 337H888" stroke="#e1e0d9" stroke-width="1"/>
<text x="78" y="340.5" font-size="10" fill="#898781" text-anchor="end" style="font-variant-numeric:tabular-nums">−0.494</text>
<path d="M84 274.5H888" stroke="#e1e0d9" stroke-width="1"/>
<text x="78" y="278" font-size="10" fill="#898781" text-anchor="end" style="font-variant-numeric:tabular-nums">−0.493</text>
<path d="M84 212H888" stroke="#e1e0d9" stroke-width="1"/>
<text x="78" y="215.5" font-size="10" fill="#898781" text-anchor="end" style="font-variant-numeric:tabular-nums">−0.492</text>
<path d="M84 149.5H888" stroke="#e1e0d9" stroke-width="1"/>
<text x="78" y="153" font-size="10" fill="#898781" text-anchor="end" style="font-variant-numeric:tabular-nums">−0.491</text>
<path d="M232.4 399v4" stroke="#e1e0d9" stroke-width="1"/>
<text x="232.4" y="416" font-size="10.5" fill="#898781" text-anchor="middle" style="font-variant-numeric:tabular-nums">64</text>
<path d="M529.1 399v4" stroke="#e1e0d9" stroke-width="1"/>
<text x="529.1" y="416" font-size="10.5" fill="#898781" text-anchor="middle" style="font-variant-numeric:tabular-nums">144</text>
<path d="M739.6 399v4" stroke="#e1e0d9" stroke-width="1"/>
<text x="739.6" y="416" font-size="10.5" fill="#898781" text-anchor="middle" style="font-variant-numeric:tabular-nums">256</text>
<text x="888" y="431" font-size="10.5" fill="#52514e" text-anchor="end">sites</text>
<a class="pt" href="/instances/#r-J1J2_square_64_P_0_52-a020b68a"><circle cx="232.4" cy="342.7" r="6.5" fill="#fcfcfb"/><circle cx="232.4" cy="342.7" r="4" fill="#fcfcfb" stroke="#1baf7a" stroke-width="2"/></a>
<a class="pt" href="/instances/#r-J1J2_square_144_P_0_52-f963be7c"><circle cx="529.1" cy="211.5" r="6.5" fill="#fcfcfb"/><circle cx="529.1" cy="211.5" r="4" fill="#fcfcfb" stroke="#1baf7a" stroke-width="2"/></a>
<a class="pt" href="/instances/#r-J1J2_square_256_P_0_52-66b8bd4f"><circle cx="739.6" cy="211.5" r="6.5" fill="#fcfcfb"/><circle cx="739.6" cy="211.5" r="4" fill="#fcfcfb" stroke="#1baf7a" stroke-width="2"/></a>
</svg>
